# xmcd
# 
# Track frame offsets:
#     150
#     10957
#     22575
#     41122
#     53435
#     61657
#     73442
#     79152
#     94190
#     108422
#     118165
#     135917
#     152685
#     162152
#     181210
#     194572
# 
# Disc length: 2797
# 
# Revision: 6
# Processed by: cddbd v1.5.2PL0 Copyright (c) Steve Scherf et al.
# Submitted via: BonkEnc v1.0.6
# 
DISCID=cb0aeb10
DTITLE=Maria Bethânia - Meus Momentos
DYEAR=1994
DGENRE=MPB
TTITLE0=Carinhoso
TTITLE1=Se todos fossem iguais a voce
TTITLE2=Marina
TTITLE3=Camisa listada
TTITLE4=Irene
TTITLE5=Último desejo
TTITLE6=Café soçaite
TTITLE7=Baby
TTITLE8=Andança
TTITLE9=Molambo
TTITLE10=Com açúcar e com afeto
TTITLE11=Pra dizer adeus
TTITLE12=Lama
TTITLE13=Samba de roda · Marinheiro So
TTITLE14=Nada além
TTITLE15=Ele falava nisso todo dia
EXTD=by Dark AvaThar
EXTT0=
EXTT1=
EXTT2=
EXTT3=
EXTT4=
EXTT5=
EXTT6=
EXTT7=
EXTT8=
EXTT9=
EXTT10=
EXTT11=
EXTT12=
EXTT13=
EXTT14=
EXTT15=
PLAYORDER=
